<?xml version="1.0" encoding="UTF-8" standalone="no"?>
<!-- Created with Inkscape (http://www.inkscape.org/) -->

<svg
   xmlns:dc="http://purl.org/dc/elements/1.1/"
   xmlns:cc="http://creativecommons.org/ns#"
   xmlns:rdf="http://www.w3.org/1999/02/22-rdf-syntax-ns#"
   xmlns:svg="http://www.w3.org/2000/svg"
   xmlns="http://www.w3.org/2000/svg"
   xmlns:sodipodi="http://sodipodi.sourceforge.net/DTD/sodipodi-0.dtd"
   xmlns:inkscape="http://www.inkscape.org/namespaces/inkscape"
   id="svg4479"
   version="1.1"
   inkscape:version="0.91 r13725"
   width="449.99957"
   height="350.00006"
   viewBox="0 0 449.99957 350.00006"
   sodipodi:docname="paw.svg">
  <metadata
     id="metadata4485">
    <rdf:RDF>
      <cc:Work
         rdf:about="">
        <dc:format>image/svg+xml</dc:format>
        <dc:type
           rdf:resource="http://purl.org/dc/dcmitype/StillImage" />
        <dc:title></dc:title>
      </cc:Work>
    </rdf:RDF>
  </metadata>
  <defs
     id="defs4483" />
  <sodipodi:namedview
     pagecolor="#ffffff"
     bordercolor="#666666"
     borderopacity="1"
     objecttolerance="10"
     gridtolerance="10"
     guidetolerance="10"
     inkscape:pageopacity="0"
     inkscape:pageshadow="2"
     inkscape:window-width="1366"
     inkscape:window-height="744"
     id="namedview4481"
     showgrid="false"
     inkscape:snap-bbox="false"
     inkscape:snap-others="false"
     inkscape:zoom="0.48653406"
     inkscape:cx="465.26054"
     inkscape:cy="490.33495"
     inkscape:window-x="0"
     inkscape:window-y="24"
     inkscape:window-maximized="1"
     inkscape:current-layer="layer4"
     fit-margin-top="0"
     fit-margin-left="0"
     fit-margin-right="0"
     fit-margin-bottom="0" />
  <g
     inkscape:groupmode="layer"
     id="layer2"
     inkscape:label="outline"
     style="display:inline"
     transform="translate(-248.70622,-299.485)" />
  <g
     inkscape:groupmode="layer"
     id="layer4"
     inkscape:label="light"
     style="display:inline"
     transform="translate(-248.70622,-411.485)">
    <g
       id="left-paw"
       inkscape:label="#g5611"
       transform="matrix(0.6237925,0,0,0.61718601,93.56524,291.50719)">
      <path
         sodipodi:nodetypes="cssscscscssc"
         inkscape:connector-curvature="0"
         id="path4500-6"
         d="m 422.93551,759.89341 c -23.18448,-40.81147 -41.94278,-81.73857 -55.08098,-116.99128 -13.1381,-35.25271 -22.3117,-66.90062 -33.3634,-104.05477 -10.3193,-34.69193 -17.7888,-106.40968 -46.2147,-141.38723 -82.5196,-101.53893 -5.0613,-162.2974 39.334,-148.10137 5.5235,-19.07222 18.7923,-37.41183 47.6663,-47.89232 44.47624,-16.14364 75.911,23.56683 75.911,23.56683 39.11176,-23.32858 79.79118,-0.145 93.47999,22.5726 27.5123,45.65873 -9.36589,93.07354 -22.82936,115.31753 0,0 -28.84777,57.90871 -24.00009,107.70776 6.43904,66.1466 29.46496,96.14843 48.00019,142.82984 6.05509,15.24988 20.59733,44.70746 20.59733,44.70746"
         style="color:#000000;clip-rule:nonzero;display:inline;overflow:visible;visibility:visible;opacity:1;isolation:auto;mix-blend-mode:normal;color-interpolation:sRGB;color-interpolation-filters:linearRGB;solid-color:#000000;solid-opacity:1;fill:#86929f;fill-opacity:1;fill-rule:evenodd;stroke:none;stroke-width:6.44432402;stroke-linecap:butt;stroke-linejoin:miter;stroke-miterlimit:4;stroke-dasharray:none;stroke-dashoffset:0;stroke-opacity:1;color-rendering:auto;image-rendering:auto;shape-rendering:auto;text-rendering:auto;enable-background:accumulate" />
      <path
         sodipodi:nodetypes="cc"
         inkscape:connector-curvature="0"
         id="path4502-26"
         d="m 335.88353,324.13675 c 0,0 -18.1491,-39.14286 -8.28,-74.77311"
         style="display:inline;fill:none;fill-rule:evenodd;stroke:none;stroke-width:6.44432402;stroke-linecap:butt;stroke-linejoin:miter;stroke-miterlimit:4;stroke-dasharray:none;stroke-opacity:1" />
      <path
         sodipodi:nodetypes="cc"
         inkscape:connector-curvature="0"
         id="path4504-1"
         d="m 420.56967,318.43541 c 0,0 -22.73654,-61.44045 29.26841,-92.48817"
         style="display:inline;fill:none;fill-rule:evenodd;stroke:none;stroke-width:6.44432402;stroke-linecap:butt;stroke-linejoin:miter;stroke-miterlimit:4;stroke-dasharray:none;stroke-opacity:1" />
      <path
         sodipodi:nodetypes="cscscsccc"
         inkscape:connector-curvature="0"
         id="path5528-8"
         d="m 310.14923,440.73394 c -4.8589,-12.18432 -14.7663,-34.52942 -21.8728,-43.27381 -82.5196,-101.53895 -5.0613,-162.2974 39.334,-148.10137 5.5235,-19.07222 18.7923,-37.41183 47.6663,-47.89233 44.47624,-16.14364 75.911,23.56684 75.911,23.56684 39.11176,-23.32859 79.79118,-0.145 93.47999,22.5726 27.5123,45.65873 -9.36589,93.07354 -22.82936,115.31753 0,0 -14.86788,33.8009 -21.47386,62.49642 0,0 -106.86807,35.6833 -190.21527,15.31412 z"
         style="color:#000000;clip-rule:nonzero;display:inline;overflow:visible;visibility:visible;opacity:1;isolation:auto;mix-blend-mode:normal;color-interpolation:sRGB;color-interpolation-filters:linearRGB;solid-color:#000000;solid-opacity:1;fill:#ffffff;fill-opacity:0.79901961;fill-rule:evenodd;stroke:none;stroke-width:6.44432402;stroke-linecap:butt;stroke-linejoin:miter;stroke-miterlimit:4;stroke-dasharray:none;stroke-dashoffset:0;stroke-opacity:1;color-rendering:auto;image-rendering:auto;shape-rendering:auto;text-rendering:auto;enable-background:accumulate" />
      <path
         sodipodi:nodetypes="cssscscscssc"
         inkscape:connector-curvature="0"
         id="path4500-3-7"
         d="m 422.93551,759.89341 c -23.18448,-40.81147 -41.94278,-81.73857 -55.08098,-116.99128 -13.1381,-35.25271 -22.3117,-66.90062 -33.3634,-104.05477 -10.3193,-34.69193 -17.7888,-106.40968 -46.2147,-141.38723 -82.5196,-101.53893 -5.0613,-162.2974 39.334,-148.10137 5.5235,-19.07222 18.7923,-37.41183 47.6663,-47.89233 44.47624,-16.14364 75.911,23.56684 75.911,23.56684 39.11176,-23.32859 79.79118,-0.145 93.47999,22.5726 27.5123,45.65873 -9.36589,93.07354 -22.82936,115.31753 0,0 -28.84777,57.90871 -24.00009,107.70776 6.43904,66.1466 29.46496,96.14843 48.00019,142.82984 6.05509,15.24988 20.59733,44.70746 20.59733,44.70746"
         style="color:#000000;clip-rule:nonzero;display:inline;overflow:visible;visibility:visible;opacity:1;isolation:auto;mix-blend-mode:normal;color-interpolation:sRGB;color-interpolation-filters:linearRGB;solid-color:#000000;solid-opacity:1;fill:none;fill-opacity:1;fill-rule:evenodd;stroke:#505f6f;stroke-width:6.44432402;stroke-linecap:butt;stroke-linejoin:miter;stroke-miterlimit:4;stroke-dasharray:none;stroke-dashoffset:0;stroke-opacity:1;color-rendering:auto;image-rendering:auto;shape-rendering:auto;text-rendering:auto;enable-background:accumulate" />
      <path
         sodipodi:nodetypes="cc"
         inkscape:connector-curvature="0"
         id="path4502-6-9"
         d="m 335.88353,324.13675 c 0,0 -18.1491,-39.14286 -8.28,-74.77311"
         style="display:inline;fill:none;fill-rule:evenodd;stroke:#505f6f;stroke-width:6.44432402;stroke-linecap:butt;stroke-linejoin:miter;stroke-miterlimit:4;stroke-dasharray:none;stroke-opacity:1" />
      <path
         sodipodi:nodetypes="cc"
         inkscape:connector-curvature="0"
         id="path4504-0-2"
         d="m 420.56967,318.43541 c 0,0 -22.73654,-61.44045 29.26841,-92.48817"
         style="display:inline;fill:none;fill-rule:evenodd;stroke:#505f6f;stroke-width:6.44432402;stroke-linecap:butt;stroke-linejoin:miter;stroke-miterlimit:4;stroke-dasharray:none;stroke-opacity:1" />
      <path
         sodipodi:nodetypes="ccsc"
         inkscape:connector-curvature="0"
         id="path5407-0"
         d="m 288.27643,397.46013 c -82.5196,-101.53893 -5.0613,-162.2974 39.334,-148.10137 0,0 -37.9552,-0.14742 -58.2839,41.42869 -22.9184,46.87231 18.9499,106.67268 18.9499,106.67268 z"
         style="color:#000000;clip-rule:nonzero;display:inline;overflow:visible;visibility:visible;opacity:1;isolation:auto;mix-blend-mode:normal;color-interpolation:sRGB;color-interpolation-filters:linearRGB;solid-color:#000000;solid-opacity:1;fill:#505f6f;fill-opacity:1;fill-rule:evenodd;stroke:#505f6f;stroke-width:6.44432402;stroke-linecap:butt;stroke-linejoin:miter;stroke-miterlimit:4;stroke-dasharray:none;stroke-dashoffset:0;stroke-opacity:1;color-rendering:auto;image-rendering:auto;shape-rendering:auto;text-rendering:auto;enable-background:accumulate" />
      <path
         sodipodi:nodetypes="ccscsc"
         inkscape:connector-curvature="0"
         id="path4502-2-2"
         d="m 335.88353,324.13675 c 0,0 -18.1491,-39.14286 -8.2766,-74.77555 5.527,-19.07466 18.7958,-37.41429 47.6698,-47.89476 22.2381,-8.07183 41.21588,-2.18011 54.63409,5.72955 -13.87364,-7.19374 -50.75719,-8.60865 -79.36889,26.80572 -19.7319,24.42332 -17.4681,55.66672 -14.6584,90.13504 z"
         style="display:inline;fill:#505f6f;fill-opacity:1;fill-rule:evenodd;stroke:#505f6f;stroke-width:6.44399977;stroke-linecap:butt;stroke-linejoin:miter;stroke-miterlimit:4;stroke-dasharray:none;stroke-opacity:1" />
      <path
         sodipodi:nodetypes="cccsc"
         inkscape:connector-curvature="0"
         id="path4504-7-3"
         d="m 420.56967,318.43541 c 0,0 -22.73654,-61.44045 29.94324,-92.94516 20.2307,-12.12127 40.17849,-12.15752 56.94842,-6.438 -38.7948,-6.16606 -57.43417,17.7025 -65.43894,26.93289 -12.58355,14.51023 -18.53605,34.01009 -21.45272,72.45027 z"
         style="display:inline;fill:#505f6f;fill-opacity:1;fill-rule:evenodd;stroke:#505f6f;stroke-width:6.44432402;stroke-linecap:butt;stroke-linejoin:miter;stroke-miterlimit:4;stroke-dasharray:none;stroke-opacity:1" />
    </g>
    <g
       style="display:inline"
       id="left-paw-7"
       inkscape:label="#g5611"
       transform="matrix(-0.6237925,0,0,0.61718601,853.84678,291.50719)">
      <path
         sodipodi:nodetypes="cssscscscssc"
         inkscape:connector-curvature="0"
         id="path4500-6-5"
         d="m 422.93551,759.89341 c -23.18448,-40.81147 -41.94278,-81.73857 -55.08098,-116.99128 -13.1381,-35.25271 -22.3117,-66.90062 -33.3634,-104.05477 -10.3193,-34.69193 -17.7888,-106.40968 -46.2147,-141.38723 -82.5196,-101.53893 -5.0613,-162.2974 39.334,-148.10137 5.5235,-19.07222 18.7923,-37.41183 47.6663,-47.89232 44.47624,-16.14364 75.911,23.56683 75.911,23.56683 39.11176,-23.32858 79.79118,-0.145 93.47999,22.5726 27.5123,45.65873 -9.36589,93.07354 -22.82936,115.31753 0,0 -28.84777,57.90871 -24.00009,107.70776 6.43904,66.1466 29.46496,96.14843 48.00019,142.82984 6.05509,15.24988 20.59733,44.70746 20.59733,44.70746"
         style="color:#000000;clip-rule:nonzero;display:inline;overflow:visible;visibility:visible;opacity:1;isolation:auto;mix-blend-mode:normal;color-interpolation:sRGB;color-interpolation-filters:linearRGB;solid-color:#000000;solid-opacity:1;fill:#86929f;fill-opacity:1;fill-rule:evenodd;stroke:none;stroke-width:6.44432402;stroke-linecap:butt;stroke-linejoin:miter;stroke-miterlimit:4;stroke-dasharray:none;stroke-dashoffset:0;stroke-opacity:1;color-rendering:auto;image-rendering:auto;shape-rendering:auto;text-rendering:auto;enable-background:accumulate" />
      <path
         sodipodi:nodetypes="cc"
         inkscape:connector-curvature="0"
         id="path4502-26-9"
         d="m 335.88353,324.13675 c 0,0 -18.1491,-39.14286 -8.28,-74.77311"
         style="display:inline;fill:none;fill-rule:evenodd;stroke:none;stroke-width:6.44432402;stroke-linecap:butt;stroke-linejoin:miter;stroke-miterlimit:4;stroke-dasharray:none;stroke-opacity:1" />
      <path
         sodipodi:nodetypes="cc"
         inkscape:connector-curvature="0"
         id="path4504-1-2"
         d="m 420.56967,318.43541 c 0,0 -22.73654,-61.44045 29.26841,-92.48817"
         style="display:inline;fill:none;fill-rule:evenodd;stroke:none;stroke-width:6.44432402;stroke-linecap:butt;stroke-linejoin:miter;stroke-miterlimit:4;stroke-dasharray:none;stroke-opacity:1" />
      <path
         sodipodi:nodetypes="cscscsccc"
         inkscape:connector-curvature="0"
         id="path5528-8-2"
         d="m 310.14923,440.73394 c -4.8589,-12.18432 -14.7663,-34.52942 -21.8728,-43.27381 -82.5196,-101.53895 -5.0613,-162.2974 39.334,-148.10137 5.5235,-19.07222 18.7923,-37.41183 47.6663,-47.89233 44.47624,-16.14364 75.911,23.56684 75.911,23.56684 39.11176,-23.32859 79.79118,-0.145 93.47999,22.5726 27.5123,45.65873 -9.36589,93.07354 -22.82936,115.31753 0,0 -14.86788,33.8009 -21.47386,62.49642 0,0 -106.86807,35.6833 -190.21527,15.31412 z"
         style="color:#000000;clip-rule:nonzero;display:inline;overflow:visible;visibility:visible;opacity:1;isolation:auto;mix-blend-mode:normal;color-interpolation:sRGB;color-interpolation-filters:linearRGB;solid-color:#000000;solid-opacity:1;fill:#ffffff;fill-opacity:0.79901961;fill-rule:evenodd;stroke:none;stroke-width:6.44432402;stroke-linecap:butt;stroke-linejoin:miter;stroke-miterlimit:4;stroke-dasharray:none;stroke-dashoffset:0;stroke-opacity:1;color-rendering:auto;image-rendering:auto;shape-rendering:auto;text-rendering:auto;enable-background:accumulate" />
      <path
         sodipodi:nodetypes="cssscscscssc"
         inkscape:connector-curvature="0"
         id="path4500-3-7-8"
         d="m 422.93551,759.89341 c -23.18448,-40.81147 -41.94278,-81.73857 -55.08098,-116.99128 -13.1381,-35.25271 -22.3117,-66.90062 -33.3634,-104.05477 -10.3193,-34.69193 -17.7888,-106.40968 -46.2147,-141.38723 -82.5196,-101.53893 -5.0613,-162.2974 39.334,-148.10137 5.5235,-19.07222 18.7923,-37.41183 47.6663,-47.89233 44.47624,-16.14364 75.911,23.56684 75.911,23.56684 39.11176,-23.32859 79.79118,-0.145 93.47999,22.5726 27.5123,45.65873 -9.36589,93.07354 -22.82936,115.31753 0,0 -28.84777,57.90871 -24.00009,107.70776 6.43904,66.1466 29.46496,96.14843 48.00019,142.82984 6.05509,15.24988 20.59733,44.70746 20.59733,44.70746"
         style="color:#000000;clip-rule:nonzero;display:inline;overflow:visible;visibility:visible;opacity:1;isolation:auto;mix-blend-mode:normal;color-interpolation:sRGB;color-interpolation-filters:linearRGB;solid-color:#000000;solid-opacity:1;fill:none;fill-opacity:1;fill-rule:evenodd;stroke:#505f6f;stroke-width:6.44432402;stroke-linecap:butt;stroke-linejoin:miter;stroke-miterlimit:4;stroke-dasharray:none;stroke-dashoffset:0;stroke-opacity:1;color-rendering:auto;image-rendering:auto;shape-rendering:auto;text-rendering:auto;enable-background:accumulate" />
      <path
         sodipodi:nodetypes="cc"
         inkscape:connector-curvature="0"
         id="path4502-6-9-9"
         d="m 335.88353,324.13675 c 0,0 -18.1491,-39.14286 -8.28,-74.77311"
         style="display:inline;fill:none;fill-rule:evenodd;stroke:#505f6f;stroke-width:6.44432402;stroke-linecap:butt;stroke-linejoin:miter;stroke-miterlimit:4;stroke-dasharray:none;stroke-opacity:1" />
      <path
         sodipodi:nodetypes="cc"
         inkscape:connector-curvature="0"
         id="path4504-0-2-7"
         d="m 420.56967,318.43541 c 0,0 -22.73654,-61.44045 29.26841,-92.48817"
         style="display:inline;fill:none;fill-rule:evenodd;stroke:#505f6f;stroke-width:6.44432402;stroke-linecap:butt;stroke-linejoin:miter;stroke-miterlimit:4;stroke-dasharray:none;stroke-opacity:1" />
      <path
         sodipodi:nodetypes="ccsc"
         inkscape:connector-curvature="0"
         id="path5407-0-3"
         d="m 288.27643,397.46013 c -82.5196,-101.53893 -5.0613,-162.2974 39.334,-148.10137 0,0 -37.9552,-0.14742 -58.2839,41.42869 -22.9184,46.87231 18.9499,106.67268 18.9499,106.67268 z"
         style="color:#000000;clip-rule:nonzero;display:inline;overflow:visible;visibility:visible;opacity:1;isolation:auto;mix-blend-mode:normal;color-interpolation:sRGB;color-interpolation-filters:linearRGB;solid-color:#000000;solid-opacity:1;fill:#505f6f;fill-opacity:1;fill-rule:evenodd;stroke:#505f6f;stroke-width:6.44432402;stroke-linecap:butt;stroke-linejoin:miter;stroke-miterlimit:4;stroke-dasharray:none;stroke-dashoffset:0;stroke-opacity:1;color-rendering:auto;image-rendering:auto;shape-rendering:auto;text-rendering:auto;enable-background:accumulate" />
      <path
         sodipodi:nodetypes="ccscsc"
         inkscape:connector-curvature="0"
         id="path4502-2-2-6"
         d="m 335.88353,324.13675 c 0,0 -18.1491,-39.14286 -8.2766,-74.77555 5.527,-19.07466 18.7958,-37.41429 47.6698,-47.89476 22.2381,-8.07183 41.21588,-2.18011 54.63409,5.72955 -13.87364,-7.19374 -50.75719,-8.60865 -79.36889,26.80572 -19.7319,24.42332 -17.4681,55.66672 -14.6584,90.13504 z"
         style="display:inline;fill:#505f6f;fill-opacity:1;fill-rule:evenodd;stroke:#505f6f;stroke-width:6.44399977;stroke-linecap:butt;stroke-linejoin:miter;stroke-miterlimit:4;stroke-dasharray:none;stroke-opacity:1" />
      <path
         sodipodi:nodetypes="cccsc"
         inkscape:connector-curvature="0"
         id="path4504-7-3-1"
         d="m 420.56967,318.43541 c 0,0 -22.73654,-61.44045 29.94324,-92.94516 20.2307,-12.12127 40.17849,-12.15752 56.94842,-6.438 -38.7948,-6.16606 -57.43417,17.7025 -65.43894,26.93289 -12.58355,14.51023 -18.53605,34.01009 -21.45272,72.45027 z"
         style="display:inline;fill:#505f6f;fill-opacity:1;fill-rule:evenodd;stroke:#505f6f;stroke-width:6.44432402;stroke-linecap:butt;stroke-linejoin:miter;stroke-miterlimit:4;stroke-dasharray:none;stroke-opacity:1" />
    </g>
  </g>
  <g
     inkscape:groupmode="layer"
     id="layer5"
     inkscape:label="outline 1"
     style="display:inline"
     transform="translate(-248.70622,-411.485)" />
  <g
     inkscape:groupmode="layer"
     id="layer3"
     inkscape:label="shade"
     style="display:inline"
     transform="translate(-248.70622,-299.485)" />
</svg>
